<svg id="visual" viewBox="0 0 960 540" width="960" height="540" xmlns="http://www.w3.org/2000/svg" xmlns:xlink="http://www.w3.org/1999/xlink" version="1.1"><rect x="0" y="0" width="960" height="540" fill="#f9f9f9"></rect><defs><linearGradient id="grad1_0" x1="43.8%" y1="100%" x2="100%" y2="0%"><stop offset="14.444444444444446%" stop-color="#f9f9f9" stop-opacity="1"></stop><stop offset="85.55555555555554%" stop-color="#f9f9f9" stop-opacity="1"></stop></linearGradient></defs><defs><linearGradient id="grad2_0" x1="0%" y1="100%" x2="56.3%" y2="0%"><stop offset="14.444444444444446%" stop-color="#f9f9f9" stop-opacity="1"></stop><stop offset="85.55555555555554%" stop-color="#f9f9f9" stop-opacity="1"></stop></linearGradient></defs><g transform="translate(960, 540)"><path d="M-297 0C-292.4 -38 -287.8 -76.1 -274.4 -113.7C-261 -151.2 -238.7 -188.4 -207.2 -207.2C-175.6 -226 -134.8 -226.4 -98.7 -238.4C-62.7 -250.3 -31.3 -273.6 0 -297L0 0Z" fill="#9dbfa5"></path></g><g transform="translate(0, 0)"><path d="M297 0C293.1 38.9 289.2 77.7 274.4 113.7C259.6 149.6 233.8 182.5 202.9 202.9C172.1 223.4 136.1 231.2 101.4 244.8C66.7 258.4 33.4 277.7 0 297L0 0Z" fill="#9dbfa5"></path></g></svg>